inDegrees=no
num_controls=7
num_derivatives=13
num_iterations=45
num_multipliers=7
num_parameters=0
num_slacks=7
num_states=26
objective=0.427618
objective_accelerations=0.054445
objective_balance=0.001143
objective_effort=0.014208
objective_height=0.353105
objective_ligament=0.004717
solver_duration=682.631245
status=Solve_Succeeded
success=true
DataType=double
version=3
OpenSimVersion=4.5
endheader
time	/jointset/ground_pelvis/pelvis_tilt/value	/jointset/ground_pelvis/pelvis_tx/value	/jointset/ground_pelvis/pelvis_ty/value	/jointset/hip_l/hip_flexion_l/value	/jointset/hip_l/hip_adduction_l/value	/jointset/hip_l/hip_rotation_l/value	/jointset/back/lumbar_extension/value	/jointset/patellofemoral_l/patellar_flexion_l/value	/jointset/knee_l/knee_flexion_l/value	/jointset/knee_l/knee_adduction_l/value	/jointset/knee_l/knee_rotation_l/value	/jointset/ankle_l/ankle_angle_l/value	/jointset/subtalar_l/subtalar_angle_l/value	/jointset/ground_pelvis/pelvis_tilt/speed	/jointset/ground_pelvis/pelvis_tx/speed	/jointset/ground_pelvis/pelvis_ty/speed	/jointset/hip_l/hip_flexion_l/speed	/jointset/hip_l/hip_adduction_l/speed	/jointset/hip_l/hip_rotation_l/speed	/jointset/back/lumbar_extension/speed	/jointset/patellofemoral_l/patellar_flexion_l/speed	/jointset/knee_l/knee_flexion_l/speed	/jointset/knee_l/knee_adduction_l/speed	/jointset/knee_l/knee_rotation_l/speed	/jointset/ankle_l/ankle_angle_l/speed	/jointset/subtalar_l/subtalar_angle_l/speed	/forceset/tau_hip_flexion_l	/forceset/tau_hip_adduction_l	/forceset/tau_hip_rotation_l	/forceset/tau_knee_flexion_l	/forceset/tau_ankle_angle_l	/forceset/tau_subtalar_angle_l	/forceset/tau_lumbar_extension	lambda_cid13_p0	lambda_cid13_p1	lambda_cid13_p2	lambda_cid13_p3	lambda_cid13_p4	lambda_cid13_p5	lambda_cid14_p0	/jointset/ground_pelvis/pelvis_tilt/accel	/jointset/ground_pelvis/pelvis_tx/accel	/jointset/ground_pelvis/pelvis_ty/accel	/jointset/hip_l/hip_flexion_l/accel	/jointset/hip_l/hip_adduction_l/accel	/jointset/hip_l/hip_rotation_l/accel	/jointset/back/lumbar_extension/accel	/jointset/patellofemoral_l/patellar_flexion_l/accel	/jointset/knee_l/knee_flexion_l/accel	/jointset/knee_l/knee_adduction_l/accel	/jointset/knee_l/knee_rotation_l/accel	/jointset/ankle_l/ankle_angle_l/accel	/jointset/subtalar_l/subtalar_angle_l/accel	gamma_cid13_p0	gamma_cid13_p1	gamma_cid13_p2	gamma_cid13_p3	gamma_cid13_p4	gamma_cid13_p5	gamma_cid14_p0
1	-0.4155537169887765	0.006606720626729921	0.6211387503836509	1.592002946396624	-0.352386106767317	0.1263614756528587	-0.4362537596504631	1.442906450404133	1.442906450404133	0.0382542640799531	-0.1744262082468209	0.4353204475114988	0.2400988287024658	-0.1477166604632467	0.002012908529386059	0.0224037895443134	0.05835009209928504	0.001408944949999887	-0.04852209784124057	-0.00148695451936724	-0.1243632099570584	-0.1243632099570584	0.001040478374316787	9.371689425670677e-05	-0.04547852312951417	-0.02450117145190049	-0.2193875140661784	0.08529267971764415	-0.007850324891074997	-0.2867655808130277	-0.01924409553993907	-0.01428651462931249	0.1967549694975184	-41.24397922435089	23.35421386465025	-15.34454151367867	4.15122858844902	-534.9642426302809	-31.54370416970413	-0.02417123163635251	1.409975879083549	0.2409020170101048	1.82553917920154	-6.126498054657074	-0.187977346513454	-1.480803295422012	-0.0437481346758604	-5.286827769582001	-5.286827769582024	-0.7906035461697732	-0.02978280751691021	-1.027714033499548	-0.9047429649519483	-4.252130915499632e-09	-8.275949505260353e-08	-2.130390616124025e-08	8.709824272714311e-10	-4.022940434192362e-09	-9.513452489031274e-08	1.099414269954458e-09
1.01	-0.4169612123725248	0.00663889121757607	0.6214538969723152	1.592281198106319	-0.3523809406066346	0.1258035960502916	-0.4362696889208791	1.441398686611033	1.441398686611034	0.03822450560490416	-0.1744255083249976	0.4348142252064889	0.2398093519510493	-0.1337875338677644	0.004426188442260423	0.04062154297036694	-0.002692308318911451	-0.0003712402118699489	-0.06304893827517358	-0.001675331839767981	-0.1772012683916028	-0.1772012683916032	-0.006993214165183988	4.884241328374859e-05	-0.0557794501607666	-0.033389017898128	-0.2199382643701356	0.08528474816848436	-0.007886817616850382	-0.2858463867128812	-0.019704532975276	-0.01423848184522163	0.1970797462123359	-41.35945392359981	23.30024739513733	-15.27502832598733	4.095206780383893	-534.9260340386775	-31.48225400023167	-0.024188829251309	1.383613913747116	0.2422870722644599	1.819294070094128	-6.091994377218596	-0.1723614122797644	-1.437897798965312	-0.002847371109896001	-5.284053061142398	-5.284053061142376	-0.8099181047379942	0.008532976268342046	-1.033314883960709	-0.8800096303582504	-5.096897101182631e-09	-1.115950390023736e-07	-3.275342603557454e-08	-3.589387013437484e-09	-7.819249972590597e-09	-1.235933213195556e-07	1.107566113539564e-09
1.02	-0.4182295699175274	0.006695343826319115	0.6219511012243971	1.59194924914347	-0.3523934407598205	0.1251005933670589	-0.4362867949325446	1.439362190597438	1.439362190597437	0.03811437700509251	-0.1744251825990479	0.434204587061961	0.2394311559059906	-0.1198890927136197	0.006869312108764989	0.05881532222790804	-0.06369004240980755	-0.002124317823974378	-0.07754671397256349	-0.001722302775670466	-0.2301096540562159	-0.2301096540562167	-0.01503354658059625	1.887771854607949e-05	-0.06616169103292102	-0.04224503018035732	-0.2204890146740903	0.08527681661930528	-0.007923310342563834	-0.284927192612738	-0.02016497041062299	-0.01419044906116967	0.1974045229271505	-41.47780552059859	23.24323382321331	-15.2009732913715	4.03447713589923	-535.0051531166868	-31.42834215180858	-0.02420904506903775	1.403838790815879	0.2468707677362756	1.820744345499065	-6.11756478919707	-0.182555836560423	-1.47499034811341	-0.01546685777568627	-5.30089321559572	-5.300893215595723	-0.7919315213520872	-0.0268008502698767	-1.043976801679704	-0.8983761321522471	-6.343758908560466e-09	-1.412681412918443e-07	-4.450776346618795e-08	-7.713935642231737e-09	-1.198913247437168e-08	-1.502517186318852e-07	8.063775951537807e-10
1.03	-0.4193589158716109	0.006776439887111002	0.6226300871618032	1.59100739958846	-0.3524233200995013	0.1242528022154976	-0.4363036064062428	1.436796310889248	1.436796310889251	0.03792382577787487	-0.1744250499556524	0.4334907508239988	0.2389646296407024	-0.1059671382019837	0.009361221627720923	0.07697431856830157	-0.1246873935690221	-0.003846430744158068	-0.09200337922128975	-0.001610739942759203	-0.2830733364688637	-0.2830733364688658	-0.02307695726285853	1.098307240952429e-05	-0.0766162803199279	-0.05104964343730402	-0.2209979838540174	0.0852940284635863	-0.00794457912797189	-0.283751637173247	-0.02065896862213618	-0.01413129257350454	0.1977390274396897	-41.58840910049596	23.16794632750483	-15.11019961557099	3.937669390178514	-534.9038897295193	-31.35233648971268	-0.02423473983534939	1.388317790441612	0.2520468890674033	1.81234201773055	-6.091949211054113	-0.1662588781717141	-1.429793906002982	0.0288556586580375	-5.295163185659439	-5.295163185659586	-0.8106006863814632	0.01269447080406003	-1.04781777007993	-0.8698829180688593	-7.594723732486209e-09	-1.709497900949855e-07	-5.626521128002869e-08	-1.183505752804727e-08	-1.616282694516687e-08	-1.768917445246545e-07	5.020325424621702e-10
